<svg version="1" xmlns="http://www.w3.org/2000/svg" width="140" height="140" viewBox="0 0 105.000000 105.000000"><path d="M76.1 1.7c-1.5 1.3-2.6 4.2-3.6 9.8C70.2 22.8 70 24 68.9 29c-.6 2.5-1.2 5.4-1.5 6.5-.2 1.1-.9 4.5-1.6 7.5-.6 3-1.2 6.2-1.4 7-.2 1.5-3.2 16.1-3.9 19-.2.8-.4 1.9-.5 2.5-.2 1.1-1.4-3.3-7.9-29-.9-3.7-4.3-7.4-6.7-7.5-3.3 0-7.5 7.6-10 18-.2.8-2 6.7-4.1 13l-3.8 11.5-9.3.5C8.2 78.5 7 79.2 7 84.2c0 4.7 3 5.8 15.7 5.8 10 0 11.5-.2 13.3-2 1.1-1.1 2-2.3 2.1-2.8.1-1.6.9-4 3.7-12.7l2.9-8.9 1.1 3.4c1 3.4 3.1 10.9 3.7 14 1.8 8.2 5.7 21.5 6.6 22.6 1.3 1.6 5.2 1.8 7.8.4 1.6-.8 2.5-3.3 3.7-10 .2-1.7 3-15.2 3.9-19 .6-2.4 2.2-10.5 3-14.5.3-1.1 1.1-5.4 2-9.5.9-4.1 1.8-8.8 2-10.4.7-4.4 1.2-4.2 2 1.1.5 2.6.9 5.5 1.1 6.3.1.8 1 5.5 1.8 10.5.9 4.9 2.3 10.5 3.1 12.2 1.3 2.8 2 3.3 5 3.3 2.5 0 3.9-.6 5-2.4 1.4-2.2 1.4-3.2-.4-12.2-1.1-5.5-2.3-11.7-2.7-13.9-.4-2.2-.8-4.5-.9-5-2-9.3-6.4-32.7-6.5-34.3C86 4.4 81.4 0 79.7 0c-.8 0-2.4.8-3.6 1.7z"/></svg>